<?xml version="1.0" encoding="iso-8859-1"?>
<!-- Generator: Adobe Illustrator 19.0.0, SVG Export Plug-In . SVG Version: 6.00 Build 0)  -->
<svg version="1.1" id="Capa_1" xmlns="http://www.w3.org/2000/svg" xmlns:xlink="http://www.w3.org/1999/xlink" x="0px" y="0px"
	 viewBox="0 0 462.046 462.046" style="enable-background:new 0 0 462.046 462.046;" xml:space="preserve">
<g>
	<g>
		<path d="M237.846,312.273v-1.8c-9.2-0.1-18-0.6-26.5-1.3c-4.6,11.9-11.1,23-19.2,32.9c15.3,2.5,30.8,3.9,46.3,4.1L237.846,312.273
			z"/>
	</g>
</g>
<g>
	<g>
		<path d="M319.446,85.173c-20.3-6.2-48.4-9.7-77-9.7c-28.8,0-55.8,3.5-76,9.7c-21.1,6.4-25.7,12.7-25.8,14.7c0,0,0.1,0,0.1,0.2
			c0.5,2.2,6.5,9,28,15.2c19.9,5.8,46.1,9,73.7,9c28.6,0,56.6-3.5,76.9-9.6c21.7-6.5,26.6-13.4,26.6-14.8
			C345.946,98.573,341.146,91.773,319.446,85.173z"/>
	</g>
</g>
<g>
	<g>
		<path d="M197.346,246.073c-7.4-35.4-33.5-64.2-68.2-75.1c-9.6-2.9-19.5-4.4-29.5-4.4c-24.8,0.1-48.8,9.3-67.1,25.9
			c-40.7,37-43.6,100.1-6.6,140.8s100.1,43.6,140.8,6.6c20.8-18.9,32.7-45.6,32.6-73.7
			C199.346,259.473,198.646,252.673,197.346,246.073z M124.546,230.873h12.9c5.5,0,10,4.5,10,10s-4.5,10-10,10h-12.9
			c-1.9,7.5-5.8,14.4-11.2,19.9c-7.2,7.2-16.7,11.5-26.9,12.2l36.2,34.2c4,3.8,4.2,10.1,0.4,14.1c-3.8,4-10.1,4.2-14.1,0.4
			l-54.4-51.4c-1.9-1.9-3.1-4.5-3.1-7.2c0-5.6,4.4-10.1,10-10.2h21.8c6,0.1,11.7-2.1,16-6.3c1.7-1.7,3.2-3.6,4.3-5.7h-42
			c-5.5,0-10-4.5-10-10s4.5-10,10-10h42.1c-3.6-8-11.6-13.1-20.3-13h-21.8c-5.5,0-10-4.5-10-10s4.5-10,10-10h76.1
			c5.5,0,10,4.5,10,10s-4.5,10-10.2,10h-18.2C121.746,221.873,123.546,226.373,124.546,230.873z"/>
	</g>
</g>
<g>
	<g>
		<path d="M347.046,124.873c-6.9,3.6-14.2,6.5-21.7,8.7c-22.5,6.8-52,10.5-82.8,10.5c-29.5,0-57.6-3.4-79.3-9.7
			c-7.5-2-14.7-4.8-21.6-8.3l0.7,28.2c11.3,4.2,21.8,10.2,31.3,17.7c0.3,0.1,0.5,0.1,0.8,0.2c19.2,4.9,43.4,7.5,68.1,7.5
			c28.6,0,56.7-3.6,77-9.7c21.7-6.6,26.5-13.5,26.5-14.8c0-1.4-0.1-2.7,1-4.1V124.873z"/>
	</g>
</g>
<g>
	<g>
		<path d="M440.146,285.073c-22.3,6.6-51.3,10.2-81.7,10.2c-29.5,0-57.6-3.4-79.3-9.7c-7.5-2.1-14.8-4.9-21.8-8.4l0.4,23l0.1,8.4
			c7.8,9.7,45.1,22.2,100.5,22.2c28.9,0,56.2-3.4,76.7-9.6c21.6-6.6,26.3-13.4,26.3-14.8c0-1.1,0.6-2.3,0.6-3.3h0.1v-26.5
			C455.046,280.073,447.746,283.073,440.146,285.073z"/>
	</g>
</g>
<g>
	<g>
		<path d="M435.446,236.573c-20.4-6.2-48.4-9.5-77-9.5h-1.7c-26.6,0-51.9,3-71.3,8.5c-20.7,5.8-27.8,12.4-28.7,15.1
			c-0.1,0.2-0.1,0.3-0.1,0.4c0,0,0,0,0.2,0.4c0.6,2.1,6.5,8.9,28,15.2c19.9,5.7,46.1,8.9,73.7,8.9c28.5,0,55.5-3.3,76-9.4
			c22.2-6.6,27.2-13.5,27.3-15v-0.1C461.746,249.573,456.746,242.973,435.446,236.573z"/>
	</g>
</g>
<g>
	<g>
		<path d="M461.846,361.873v-30c-6.7,3.4-13.7,6.3-21,8.5c-22.4,6.8-51.7,10.5-82.6,10.5c-27.4,0-54.1-3.1-75.1-8.6
			c-8.6-2.2-16.9-5.2-24.9-9.1l0.5,29c0,0.1,0,0.1,0,0.2c0,1.5,4.4,8.2,25.5,14.7c20,6.1,47,9.5,75.9,9.5c28.8,0,55.9-3.5,76.1-9.8
			c21.1-6.6,25.7-13.5,25.7-14.9H461.846z"/>
	</g>
</g>
<g>
	<g>
		<path d="M346.846,180.673c-6.9,3.5-14.1,6.4-21.6,8.6c-22.5,6.8-52,10.5-82.9,10.5c-15.2,0-30.3-1-45.3-2.9
			c8.1,11.2,14.1,23.8,17.9,37.2c8.6,0.6,17.9,1,27.5,1c0.3,0,0.7,0,1,0c16.4-18,60.5-27,103.4-28.2L346.846,180.673
			L346.846,180.673z"/>
	</g>
</g>
<g>
	<g>
		<path d="M237.546,290.373l-0.6-35.4c-6.2-0.1-12.3-0.3-18.1-0.7c0.3,4,0.5,7.9,0.5,11.8c0,7.8-0.8,15.7-2.3,23.4
			C223.646,290.073,230.546,290.373,237.546,290.373z"/>
	</g>
</g>
<g>
</g>
<g>
</g>
<g>
</g>
<g>
</g>
<g>
</g>
<g>
</g>
<g>
</g>
<g>
</g>
<g>
</g>
<g>
</g>
<g>
</g>
<g>
</g>
<g>
</g>
<g>
</g>
<g>
</g>
</svg>
