<svg height="512" viewBox="0 0 192 192" width="512" xmlns="http://www.w3.org/2000/svg"><path d="m179.578 136.845-45.61-22.8a382 382 0 0 1 -26.06 32.646 16 16 0 0 1 -23.816 0 382.062 382.062 0 0 1 -26.06-32.647l-45.61 22.8a8 8 0 0 0 0 14.31l80 40a8 8 0 0 0 7.156 0l80-40a8 8 0 0 0 0-14.31z"/><path d="m96 0a56.064 56.064 0 0 0 -56 56c0 28.743 44.923 79.635 50.046 85.343a8 8 0 0 0 11.908 0c5.123-5.708 50.046-56.6 50.046-85.343a56.064 56.064 0 0 0 -56-56zm0 88a32 32 0 1 1 32-32 32.036 32.036 0 0 1 -32 32z"/></svg>