<svg height="512" viewBox="0 0 60 60" width="512" xmlns="http://www.w3.org/2000/svg"><g id="Page-1" fill="none" fill-rule="evenodd"><g id="054---Hotel-Amenities" fill="rgb(0,0,0)" fill-rule="nonzero"><path id="Shape" d="m54 0h-48c-3.31233757.00330738-5.99669262 2.68766243-6 6v48c.00330738 3.3123376 2.68766243 5.9966926 6 6h48c3.3123376-.0033074 5.9966926-2.6876624 6-6v-48c-.0033074-3.31233757-2.6876624-5.99669262-6-6zm-48 2h48c2.209139 0 4 1.790861 4 4v6h-56v-6c0-2.209139 1.790861-4 4-4zm48 56h-48c-2.209139 0-4-1.790861-4-4v-40h56v40c0 2.209139-1.790861 4-4 4z"/><path id="Shape" d="m7 10c1.65685425 0 3-1.34314575 3-3s-1.34314575-3-3-3-3 1.34314575-3 3 1.34314575 3 3 3zm0-4c.55228475 0 1 .44771525 1 1s-.44771525 1-1 1-1-.44771525-1-1 .44771525-1 1-1z"/><path id="Shape" d="m15 10c1.6568542 0 3-1.34314575 3-3s-1.3431458-3-3-3-3 1.34314575-3 3 1.3431458 3 3 3zm0-4c.5522847 0 1 .44771525 1 1s-.4477153 1-1 1-1-.44771525-1-1 .4477153-1 1-1z"/><path id="Shape" d="m23 10c1.6568542 0 3-1.34314575 3-3s-1.3431458-3-3-3-3 1.34314575-3 3 1.3431458 3 3 3zm0-4c.5522847 0 1 .44771525 1 1s-.4477153 1-1 1-1-.44771525-1-1 .4477153-1 1-1z"/><path id="Shape" d="m43 8h12c.5522847 0 1-.44771525 1-1s-.4477153-1-1-1h-12c-.5522847 0-1 .44771525-1 1s.4477153 1 1 1z"/><path id="Shape" d="m10 29c-.55228475 0-1 .4477153-1 1v1c0 .5522847.44771525 1 1 1 .5522847 0 1-.4477153 1-1v-1c0-.5522847-.4477153-1-1-1z"/><path id="Shape" d="m14 29c-.5522847 0-1 .4477153-1 1v1c0 .5522847.4477153 1 1 1s1-.4477153 1-1v-1c0-.5522847-.4477153-1-1-1z"/><path id="Shape" d="m10 24c-.55228475 0-1 .4477153-1 1v1c0 .5522847.44771525 1 1 1 .5522847 0 1-.4477153 1-1v-1c0-.5522847-.4477153-1-1-1z"/><path id="Shape" d="m14 24c-.5522847 0-1 .4477153-1 1v1c0 .5522847.4477153 1 1 1s1-.4477153 1-1v-1c0-.5522847-.4477153-1-1-1z"/><path id="Shape" d="m21 40h-16c-.55228475 0-1 .4477153-1 1s.44771525 1 1 1h16c.5522847 0 1-.4477153 1-1s-.4477153-1-1-1z"/><path id="Shape" d="m5 46h9c.5522847 0 1-.4477153 1-1s-.4477153-1-1-1h-9c-.55228475 0-1 .4477153-1 1s.44771525 1 1 1z"/><path id="Shape" d="m21 44h-3c-.5522847 0-1 .4477153-1 1s.4477153 1 1 1h3c.5522847 0 1-.4477153 1-1s-.4477153-1-1-1z"/><path id="Shape" d="m5 50h3c.55228475 0 1-.4477153 1-1s-.44771525-1-1-1h-3c-.55228475 0-1 .4477153-1 1s.44771525 1 1 1z"/><path id="Shape" d="m21 48h-9c-.5522847 0-1 .4477153-1 1s.4477153 1 1 1h9c.5522847 0 1-.4477153 1-1s-.4477153-1-1-1z"/><path id="Shape" d="m12 52h-7c-.55228475 0-1 .4477153-1 1s.44771525 1 1 1h7c.5522847 0 1-.4477153 1-1s-.4477153-1-1-1z"/><path id="Shape" d="m26 22h-3c-1.1045695 0-2 .8954305-2 2h-2v-2.278c.6167513-.3544126.997855-1.0106732 1-1.722v-2c0-1.1045695-.8954305-2-2-2h-12c-1.1045695 0-2 .8954305-2 2v2c.002145.7113268.38324874 1.3675874 1 1.722v13.278c-.55228475 0-1 .4477153-1 1s.44771525 1 1 1h14c.5522847 0 1-.4477153 1-1s-.4477153-1-1-1v-3h2c0 1.1045695.8954305 2 2 2h3c1.1045695 0 2-.8954305 2-2v-8c0-1.1045695-.8954305-2-2-2zm-20-4h12v2h-12zm7 17v-1c0-.5522847-.4477153-1-1-1s-1 .4477153-1 1v1h-4v-13h10v13zm6-5v-4h2v4zm4 2v-8h3v8z"/><path id="Shape" d="m41 38c1.1045695 0 2-.8954305 2-2v-6c0-1.1045695-.8954305-2-2-2h-8c-1.1045695 0-2 .8954305-2 2v6c0 1.1045695.8954305 2 2 2h3v2h-2c-.5522847 0-1 .4477153-1 1s.4477153 1 1 1h6c.5522847 0 1-.4477153 1-1s-.4477153-1-1-1h-2v-2zm0-2h-4.382l3-6h1.382zm-8-6h4.382l-3 6h-1.382z"/><circle id="Oval" cx="37" cy="25" r="1"/><path id="Shape" d="m39.4 23.2c.3313708.4418278.9581722.5313708 1.4.2s.5313708-.9581722.2-1.4c-.9442719-1.2590292-2.4262135-2-4-2s-3.0557281.7409708-4 2c-.3313708.4418278-.2418278 1.0686292.2 1.4s1.0686292.2418278 1.4-.2c.5665631-.7554175 1.4557281-1.2 2.4-1.2s1.8334369.4445825 2.4 1.2z"/><path id="Shape" d="m31.75 20.372c1.3288313-1.5067531 3.2409959-2.3699352 5.25-2.3699352s3.9211687.8631821 5.25 2.3699352c.2365098.2679492.5980031.389368.9483088.3185191.3503057-.070849.6362041-.3232019.75-.662.1137959-.3387982.038201-.7125699-.1983088-.9805191-1.7084974-1.9372539-4.1669948-3.0470596-6.75-3.0470596s-5.0415026 1.1098057-6.75 3.0470596c-.3656125.4142136-.3262136 1.0463875.088 1.412s1.0463875.3262136 1.412-.088z"/><path id="Shape" d="m54.168 17.445-3.323 4.986-1.138-1.138c-.3923789-.3789722-1.0160848-.3735524-1.4018186.0121814s-.3911536 1.0094397-.0121814 1.4018186l2 2c.1874927.1875494.4418052.2929434.707.293h.1c.2978726-.0295676.5668354-.1910187.733-.44l4-6c.1982824-.297245.2229246-.6776931.0646441-.9980332s-.4754371-.5319049-.832-.555-.6983617.1457882-.8966441.4430332z"/><path id="Shape" d="m54.168 31.445-3.323 4.986-1.138-1.138c-.3923789-.3789722-1.0160848-.3735524-1.4018186.0121814s-.3911536 1.0094397-.0121814 1.4018186l2 2c.1874927.1875494.4418052.2929434.707.293.033 0 .065 0 .1-.005.2978726-.0295676.5668354-.1910187.733-.44l4-6c.1982824-.297245.2229246-.6776931.0646441-.9980332s-.4754371-.5319049-.832-.555-.6983617.1457882-.8966441.4430332z"/><path id="Shape" d="m54.168 45.445-3.323 4.986-1.138-1.138c-.3923789-.3789722-1.0160848-.3735524-1.4018186.0121814s-.3911536 1.0094397-.0121814 1.4018186l2 2c.1874927.1875494.4418052.2929434.707.293.033 0 .065 0 .1-.005.2978726-.0295676.5668354-.1910187.733-.44l4-6c.1982824-.297245.2229246-.6776931.0646441-.9980332-.1582804-.3203401-.4754371-.5319049-.832-.555s-.6983617.1457882-.8966441.4430332z"/><path id="Shape" d="m44 45h-10c-1.1045695 0-2 .8954305-2 2v3c.0036768 1.0854693.3641933 2.1396111 1.026 3h-1.026c-.5522847 0-1 .4477153-1 1s.4477153 1 1 1h10c.5522847 0 1-.4477153 1-1s-.4477153-1-1-1h-1.026c.4545708-.5887694.7707242-1.2723442.925-2h1.101c1.6568542 0 3-1.3431458 3-3v-1c0-1.1045695-.8954305-2-2-2zm-10 5v-3h6v3c0 1.6568542-1.3431458 3-3 3s-3-1.3431458-3-3zm10-2c0 .5522847-.4477153 1-1 1h-1v-2h2z"/></g></g></svg>