<svg height="512" viewBox="0 0 64 64" width="512" xmlns="http://www.w3.org/2000/svg"><circle cx="32" cy="32" fill="#ff9811" r="29"/><circle cx="32" cy="32" fill="#ffd422" r="25"/><path d="m32 14v24l-13 8z" fill="#ff6243"/><path d="m32 14 13 32-13-8z" fill="#ff5023"/><path d="m32.926 13.624a1 1 0 0 0 -1.852 0l-13 32a1 1 0 0 0 1.45 1.228l12.476-7.678 12.476 7.678a1 1 0 0 0 1.45-1.228zm-1.926 5.494v18.323l-9.925 6.108zm2 18.323v-18.323l9.925 24.431z"/><path d="m32 6a26 26 0 1 0 26 26 26.03 26.03 0 0 0 -26-26zm0 50a24 24 0 1 1 24-24 24.028 24.028 0 0 1 -24 24z"/><path d="m32 2a30 30 0 1 0 30 30 30.034 30.034 0 0 0 -30-30zm0 58a28 28 0 1 1 28-28 28.032 28.032 0 0 1 -28 28z"/></svg>