<svg height="370pt" viewBox="-18 0 370 370.00139" width="370pt" xmlns="http://www.w3.org/2000/svg"><path d="m242.96875 209c3.3125 0 6-2.6875 6-6s-2.6875-6-6-6h-56.621094c-3.3125 0-6 2.6875-6 6s2.6875 6 6 6h16.203125c7.710938-.050781 14.621094 4.753906 17.261719 12h-33.464844c-3.3125 0-6 2.6875-6 6s2.6875 6 6 6h33.464844c-2.640625 7.246094-9.550781 12.050781-17.261719 12h-16.199219c-2.46875.046875-4.667968 1.570312-5.570312 3.871094-.902344 2.296875-.328125 4.910156 1.449219 6.621094l40.488281 38.289062c1.152344 1.097656 2.695312 1.691406 4.289062 1.648438 1.589844-.042969 3.097657-.714844 4.195313-1.871094 2.277344-2.441406 2.167969-6.257813-.242187-8.566406l-29.527344-27.992188h1.117187c14.378907.171875 26.847657-9.90625 29.695313-24h10.722656c3.3125 0 6-2.6875 6-6s-2.6875-6-6-6h-10.722656c-.699219-4.441406-2.625-8.601562-5.570313-12zm0 0"/><path d="m.00390625 338.5c.02734375 17.425781 14.17578175 31.527344 31.59765575 31.5h154.941407c5.886719.046875 11.664062-1.566406 16.671875-4.660156 3.769531.359375 7.582031.601562 11.445312.601562 65.765625.011719 119.277344-52.933594 119.96875-118.695312.6875-65.761719-51.699218-119.816406-117.453125-121.1875-1.839843-7.191406-6.144531-13.507813-12.164062-17.851563 8.238281-5.921875 13.125-15.449219 13.132812-25.597656.003907-10.152344-4.875-19.683594-13.109375-25.613281 11.117188-7.984375 15.796875-22.238282 11.574219-35.253906-4.222656-13.015626-16.378906-21.8085942-30.066406-21.742188h-154.9375c-13.691407-.0507812-25.84375 8.753906-30.066407 21.777344-4.222656 13.019531.457032 27.28125 11.570313 35.269531-8.226563 5.921875-13.10546875 15.445313-13.10546875 25.582031 0 10.140625 4.87890575 19.660156 13.10546875 25.582032-8.226563 5.929687-13.10546875 15.453124-13.10546875 25.597656 0 10.140625 4.87890575 19.667968 13.10546875 25.59375-8.230469 5.929687-13.10546875 15.457031-13.10546875 25.601562 0 10.144532 4.87499975 19.667969 13.10546875 25.597656-8.226563 5.933594-13.10546875 15.457032-13.10546875 25.601563s4.87890575 19.667969 13.10546875 25.601563c-8.230469 5.917968-13.109375 15.4375-13.109375 25.574218 0 10.136719 4.878906 19.65625 13.109375 25.574219-8.222656 5.910156-13.1015625 15.417969-13.10546875 25.546875zm106.97265575-84.5h17.273438c1.679688 19.140625 9.414062 37.246094 22.078125 51.691406l-12.183594 12.1875c-15.867187-17.707031-25.417969-40.167968-27.167969-63.878906zm111.34375 82.699219c20.480469-.808594 40.078126-8.554688 55.578126-21.972657l12.1875 12.191407c-18.75 16.625-42.71875 26.175781-67.765626 27.003906zm-3.660156-11.917969c-43.5 0-78.765625-35.261719-78.769531-78.761719 0-43.5 35.261719-78.765625 78.761719-78.765625 43.503906-.003906 78.765625 35.261719 78.765625 78.761719-.046875 43.480469-35.28125 78.710937-78.757813 78.765625zm59.671875-147.09375c-15.558593-13.644531-35.332031-21.535156-56.011719-22.355469v-17.222656c25.242188.835937 49.386719 10.535156 68.199219 27.390625zm-68.011719-39.328125v17.28125c-19.253906 1.765625-37.433593 9.660156-51.871093 22.523437l-12.242188-12.140624c17.699219-16.09375 40.257813-25.828126 64.113281-27.664063zm-72.542968 36.207031 12.242187 12.132813c-13.378906 15.417969-21.140625 34.910156-22.03125 55.300781h-17.222656c.910156-24.929688 10.457031-48.769531 27.011719-67.433594zm21.027344 139.621094c14.382812 12.675781 32.421874 20.453125 51.515624 22.203125v17.28125c-23.664062-1.820313-46.0625-11.417969-63.699218-27.296875zm139.828124 4.300781-12.1875-12.1875c12.980469-14.539062 20.914063-32.882812 22.621094-52.300781h17.273438c-1.765625 23.988281-11.523438 46.695312-27.707032 64.488281zm27.921876-76.488281h-17.226563c-.898437-20.636719-8.839844-40.34375-22.5-55.835938l12.191406-12.1875c16.871094 18.746094 26.617188 42.820313 27.535157 68.023438zm-310.550782-210.5c.007813-5.1875 2.082032-10.15625 5.757813-13.8125s8.65625-5.703125 13.839843-5.6875h154.941407c10.769531 0 19.5 8.730469 19.5 19.5s-8.730469 19.5-19.5 19.5h-154.9375c-5.1875.015625-10.167969-2.027344-13.84375-5.6875-3.675781-3.65625-5.75-8.625-5.757813-13.8125zm0 51c.007813-5.1875 2.082032-10.15625 5.757813-13.8125s8.65625-5.703125 13.839843-5.6875h154.941407c10.769531 0 19.5 8.730469 19.5 19.5s-8.730469 19.5-19.5 19.5h-154.9375c-5.1875.015625-10.167969-2.027344-13.84375-5.6875-3.675781-3.65625-5.75-8.625-5.757813-13.8125zm0 51c.007813-5.1875 2.082032-10.15625 5.757813-13.8125s8.65625-5.703125 13.839843-5.6875h154.941407c7.957031-.007812 15.132812 4.796875 18.15625 12.160156-24.289063 2.015625-47.386719 11.378906-66.222657 26.839844h-106.871093c-5.1875.015625-10.167969-2.027344-13.84375-5.6875-3.675781-3.65625-5.75-8.625-5.757813-13.8125zm0 51.5c0-10.808594 8.792969-20 19.597656-20h94.277344c-10.285156 12-18.4375 25-23.828125 40h-70.445312c-10.808594 0-19.601563-9.191406-19.601563-20zm0 51.5c.007813-5.1875 2.082032-10.15625 5.757813-13.8125s8.65625-5.703125 13.839843-5.6875h66.734376c-2.457032 9.578125-3.683594 19.429688-3.65625 29.316406 0 3.300782.140624 6.683594.402343 9.683594h-63.476562c-5.1875.015625-10.167969-2.027344-13.84375-5.6875-3.675781-3.65625-5.75-8.625-5.757813-13.8125zm0 51c.007813-5.1875 2.082032-10.15625 5.757813-13.8125s8.65625-5.703125 13.839843-5.6875h65.066407c2.582031 13.761719 7.5625 26.960938 14.710937 39h-79.773437c-5.1875.015625-10.167969-2.027344-13.84375-5.6875-3.675781-3.65625-5.75-8.625-5.757813-13.8125zm19.597656 31.5h87.902344c13.46875 18 31.65625 31 52.644532 39h-140.542969c-10.769531 0-19.5-8.730469-19.5-19.5s8.730469-19.5 19.5-19.5zm0 0"/></svg>